<?xml version="1.0" encoding="UTF-8"?>
<svg xmlns="http://www.w3.org/2000/svg" xmlns:xlink="http://www.w3.org/1999/xlink" width="20pt" height="20pt" viewBox="0 0 20 20" version="1.1">
<g id="surface1">
<path style=" stroke:none;fill-rule:nonzero;fill:rgb(0%,0%,0%);fill-opacity:1;" d="M 13.359375 5.539062 C 14.421875 5.539062 15.28125 4.679688 15.28125 3.621094 C 15.28125 2.558594 14.421875 1.699219 13.359375 1.699219 C 12.300781 1.699219 11.441406 2.558594 11.441406 3.621094 C 11.441406 4.679688 12.300781 5.539062 13.359375 5.539062 Z M 13.359375 2.699219 C 13.878906 2.699219 14.28125 3.121094 14.28125 3.621094 C 14.28125 4.121094 13.859375 4.539062 13.359375 4.539062 C 12.859375 4.539062 12.441406 4.121094 12.441406 3.621094 C 12.441406 3.121094 12.859375 2.699219 13.359375 2.699219 Z M 13.359375 2.699219 "/>
<path style=" stroke:none;fill-rule:nonzero;fill:rgb(0%,0%,0%);fill-opacity:1;" d="M 4.28125 8.738281 C 2.058594 8.738281 0.28125 10.539062 0.28125 12.738281 C 0.28125 14.941406 2.078125 16.738281 4.28125 16.738281 C 6.5 16.738281 8.28125 14.941406 8.28125 12.738281 C 8.28125 10.539062 6.480469 8.738281 4.28125 8.738281 Z M 4.28125 15.761719 C 2.621094 15.761719 1.28125 14.398438 1.28125 12.761719 C 1.28125 11.101562 2.640625 9.761719 4.28125 9.761719 C 5.921875 9.761719 7.28125 11.121094 7.28125 12.761719 C 7.28125 14.421875 5.941406 15.761719 4.28125 15.761719 Z M 4.28125 15.761719 "/>
<path style=" stroke:none;fill-rule:nonzero;fill:rgb(0%,0%,0%);fill-opacity:1;" d="M 15.761719 8.738281 C 13.539062 8.738281 11.738281 10.539062 11.738281 12.761719 C 11.738281 14.980469 13.539062 16.761719 15.761719 16.761719 C 17.980469 16.761719 19.761719 14.960938 19.761719 12.761719 C 19.761719 10.558594 17.980469 8.738281 15.761719 8.738281 Z M 15.761719 15.761719 C 14.101562 15.761719 12.738281 14.398438 12.738281 12.761719 C 12.738281 11.121094 14.101562 9.738281 15.761719 9.738281 C 17.421875 9.738281 18.761719 11.101562 18.761719 12.761719 C 18.761719 14.421875 17.421875 15.761719 15.761719 15.761719 Z M 15.761719 15.761719 "/>
<path style=" stroke:none;fill-rule:nonzero;fill:rgb(0%,0%,0%);fill-opacity:1;" d="M 12.679688 8.640625 C 12.839844 8.859375 13.160156 8.898438 13.378906 8.738281 C 13.601562 8.578125 13.640625 8.261719 13.480469 8.039062 L 11.339844 5.199219 C 11.160156 4.960938 10.820312 4.941406 10.621094 5.121094 L 7.441406 7.941406 C 7.21875 8.121094 7.21875 8.460938 7.421875 8.660156 L 9.300781 10.621094 L 9.300781 12.601562 C 9.300781 12.878906 9.519531 13.101562 9.800781 13.101562 C 10.078125 13.101562 10.300781 12.878906 10.300781 12.601562 L 10.300781 10.21875 L 8.5 8.339844 L 10.878906 6.21875 Z M 12.679688 8.640625 "/>
</g>
</svg>
